<svg width="288" height="289" viewBox="0 0 288 289" fill="none" xmlns="http://www.w3.org/2000/svg">
<g clip-path="url(#clip0_259_196)">
<path d="M27.42 173.121C27.42 173.121 30.0659 162.202 20.9501 152.787C11.8252 143.345 0.407818 143.345 0.407818 143.345C0.407818 143.345 -2.37405 156.185 6.5243 165.373C15.4317 174.552 27.42 173.121 27.42 173.121Z" fill="#DBA55A"/>
<path d="M166.767 181.992V81.8538H143.171C142.98 85.9858 142.002 89.4563 140.217 92.2835C138.441 95.1107 136.166 97.376 133.393 99.0433C130.602 100.729 127.494 101.916 124.033 102.641C120.581 103.357 117.038 103.674 113.386 103.583V124.298H136.846V181.992H166.767Z" fill="#DBA55A"/>
<path d="M75.065 129.136C74.3219 125.059 73.887 120.881 73.887 116.586C73.887 77.8214 105.249 46.2785 143.932 45.9432V45.9794C182.697 46.2332 214.149 77.8214 214.149 116.632C214.149 120.927 213.705 125.104 212.971 129.182H230.704C231.284 125.068 231.692 120.909 231.692 116.632C231.692 68.1981 192.447 28.7718 144.095 28.4274V28.373C95.6617 28.6268 56.335 68.0984 56.335 116.586C56.335 120.863 56.7427 125.022 57.3317 129.136H75.065Z" fill="#DBA55A"/>
<path d="M47.4456 171.055C47.4456 171.055 58.0384 165.228 59.9232 152.596C61.8079 139.947 52.0669 131.121 52.0669 131.121C52.0669 131.121 42.797 137.772 40.8579 150.748C38.9278 163.706 47.4456 171.055 47.4456 171.055Z" fill="#DBA55A"/>
<path d="M54.3963 183.541C54.1788 196.644 63.5755 202.815 63.5755 202.815C63.5755 202.815 73.3166 195.656 73.5431 182.88C73.7516 170.103 62.9503 162.618 62.9503 162.618C62.9503 162.618 54.6138 170.411 54.3963 183.541Z" fill="#DBA55A"/>
<path d="M83.1573 181.104C83.1573 181.104 75.6 189.658 76.6059 202.752C77.6207 215.827 87.5521 221.065 87.5521 221.065C87.5521 221.065 96.5863 213.036 95.6077 200.287C94.6109 187.546 83.1573 181.104 83.1573 181.104Z" fill="#DBA55A"/>
<path d="M117.663 236.823C117.663 236.823 124.006 226.52 119.394 214.595C114.773 202.688 101.942 199.816 101.942 199.816C101.942 199.816 97.1664 210.191 101.906 222.424C106.645 234.657 117.663 236.823 117.663 236.823Z" fill="#DBA55A"/>
<path d="M31.7155 145.148C31.7155 145.148 39.9886 137.536 37.6236 124.633C35.2767 111.738 25.7803 105.395 25.7803 105.395C25.7803 105.395 16.3473 114.538 18.6489 127.125C20.9414 139.693 31.7155 145.148 31.7155 145.148Z" fill="#DBA55A"/>
<path d="M38.5114 197.831C38.5114 197.831 37.8227 186.613 26.3328 180.288C14.8338 173.972 3.92383 177.334 3.92383 177.334C3.92383 177.334 5.05651 190.419 16.2655 196.59C27.4564 202.752 38.5114 197.831 38.5114 197.831Z" fill="#DBA55A"/>
<path d="M57.9484 219.542C57.9484 219.542 54.786 208.768 42.1815 205.153C29.5589 201.564 19.6729 207.246 19.6729 207.246C19.6729 207.246 23.6871 219.76 35.9744 223.276C48.2708 226.782 57.9484 219.542 57.9484 219.542Z" fill="#DBA55A"/>
<path d="M79.6236 234.974C79.6236 234.974 73.344 225.668 60.2321 226.039C47.1111 226.411 39.418 234.847 39.418 234.847C39.418 234.847 47.0296 245.567 59.8062 245.195C72.5829 244.815 79.6236 234.974 79.6236 234.974Z" fill="#DBA55A"/>
<path d="M88.8934 241.281C75.9174 243.229 69.2754 252.499 69.2754 252.499C69.2754 252.499 78.1194 262.231 90.7601 260.337C103.41 258.425 109.209 247.823 109.209 247.823C109.209 247.823 101.842 239.323 88.8934 241.281Z" fill="#DBA55A"/>
<path d="M36.0196 151.527L29.7763 151.319C29.7491 151.989 28.5258 219.814 130.975 249.862L132.732 243.863C35.1769 215.247 35.929 154.128 36.0196 151.527Z" fill="#DBA55A"/>
<path d="M260.589 173.175C260.589 173.175 272.596 174.607 281.485 165.428C290.374 156.239 287.602 143.399 287.602 143.399C287.602 143.399 276.184 143.399 267.059 152.832C257.943 162.238 260.589 173.175 260.589 173.175Z" fill="#DBA55A"/>
<path d="M228.086 152.642C229.97 165.291 240.563 171.1 240.563 171.1C240.563 171.1 249.072 163.76 247.151 150.793C245.23 137.826 235.951 131.166 235.951 131.166C235.951 131.166 226.201 139.992 228.086 152.642Z" fill="#DBA55A"/>
<path d="M214.476 182.925C214.684 195.693 224.443 202.851 224.443 202.851C224.443 202.851 233.84 196.689 233.622 183.577C233.414 170.466 225.087 162.655 225.087 162.655C225.087 162.655 214.267 170.148 214.476 182.925Z" fill="#DBA55A"/>
<path d="M192.393 200.341C191.424 213.091 200.458 221.119 200.458 221.119C200.458 221.119 210.398 215.882 211.404 202.806C212.401 189.73 204.844 181.158 204.844 181.158C204.844 181.158 193.399 187.601 192.393 200.341Z" fill="#DBA55A"/>
<path d="M168.616 214.64C164.012 226.574 170.355 236.868 170.355 236.868C170.355 236.868 181.383 234.711 186.113 222.469C190.834 210.227 186.077 199.861 186.077 199.861C186.077 199.861 173.246 202.733 168.616 214.64Z" fill="#DBA55A"/>
<path d="M269.379 127.17C271.681 114.584 262.248 105.441 262.248 105.441C262.248 105.441 252.751 111.784 250.395 124.687C248.039 137.582 256.303 145.202 256.303 145.202C256.303 145.202 267.086 139.747 269.379 127.17Z" fill="#DBA55A"/>
<path d="M261.695 180.342C250.196 186.658 249.517 197.885 249.517 197.885C249.517 197.885 260.563 202.806 271.772 196.644C282.962 190.482 284.104 177.388 284.104 177.388C284.104 177.388 273.185 174.027 261.695 180.342Z" fill="#DBA55A"/>
<path d="M245.846 205.207C233.232 208.804 230.079 219.597 230.079 219.597C230.079 219.597 239.757 226.837 252.053 223.33C264.34 219.805 268.355 207.291 268.355 207.291C268.355 207.291 258.46 201.601 245.846 205.207Z" fill="#DBA55A"/>
<path d="M227.787 226.076C214.684 225.704 208.396 235.028 208.396 235.028C208.396 235.028 215.418 244.869 228.213 245.241C240.99 245.612 248.601 234.883 248.601 234.883C248.601 234.883 240.908 226.465 227.787 226.076Z" fill="#DBA55A"/>
<path d="M199.134 241.326C186.167 239.378 178.818 247.887 178.818 247.887C178.818 247.887 184.627 258.488 197.267 260.4C209.917 262.276 218.752 252.571 218.752 252.571C218.752 252.571 212.11 243.274 199.134 241.326Z" fill="#DBA55A"/>
<path d="M258.261 151.364L252.018 151.581C252.099 154.164 252.842 215.283 155.305 243.909L157.063 249.916C259.511 219.859 258.279 152.044 258.261 151.364Z" fill="#DBA55A"/>
</g>
<defs>
<clipPath id="clip0_259_196">
<rect width="288" height="288" fill="white" transform="translate(0 0.5)"/>
</clipPath>
</defs>
</svg>
