<svg width="534" height="102" viewBox="0 0 534 102" fill="none" xmlns="http://www.w3.org/2000/svg">
<path d="M9 59C9 31.3858 31.3858 9 59 9H480V41C480 68.6142 457.614 91 430 91H9V59Z" fill="#404043"/>
<path d="M22 59C22 31.3858 44.3858 9 72 9H493V41C493 68.6142 470.614 91 443 91H22V59Z" fill="white"/>
<path d="M36 59C36 31.3858 58.3858 9 86 9H508V41C508 68.6142 485.614 91 458 91H36V59Z" fill="#DBA55A"/>
<path d="M52 59C52 31.3858 74.3858 9 102 9H524V41C524 68.6142 501.614 91 474 91H52V59Z" fill="#D9D9D9"/>
</svg>
