<svg width="320" height="321" viewBox="0 0 320 321" fill="none" xmlns="http://www.w3.org/2000/svg">
<path d="M288 7.61125H131.556C113.91 7.61125 99.5556 21.9662 99.5556 39.6112V64.5H32C14.355 64.5 0 78.855 0 96.5V203.167C0 263.944 49.445 313.389 110.223 313.389C151.684 313.389 187.866 290.374 206.68 256.452C207.714 256.481 208.748 256.5 209.778 256.5C270.555 256.5 320 207.055 320 146.277V39.6112C320 21.9662 305.646 7.61125 288 7.61125ZM199.111 203.167C199.111 252.18 159.236 292.056 110.223 292.056C61.2094 292.056 21.3331 252.18 21.3331 203.167V96.5C21.3331 90.6181 26.1181 85.8331 32 85.8331H188.444C194.327 85.8331 199.111 90.6181 199.111 96.5V203.167ZM298.667 146.277C298.667 193.279 261.996 231.871 215.763 234.96C218.803 224.889 220.444 214.216 220.444 203.166V172.4C234.841 175.777 246.91 185.892 252.644 200.057L272.419 192.053C263.394 169.759 243.632 154.328 220.445 150.674V96.5C220.445 78.855 206.091 64.5 188.445 64.5H120.889V39.6112C120.889 33.7294 125.674 28.9444 131.556 28.9444H288C293.883 28.9444 298.667 33.7294 298.667 39.6112V146.277Z" fill="#DBA55A"/>
<path d="M153.072 220.496C145.966 238.048 129.145 249.389 110.222 249.389C91.2989 249.389 74.4783 238.048 67.3714 220.496L47.5977 228.503C57.9833 254.15 82.5645 270.722 110.223 270.722C137.881 270.722 162.461 254.15 172.846 228.503L153.072 220.496Z" fill="#DBA55A"/>
</svg>
