<svg width="69" height="74" viewBox="0 0 69 74" fill="none" xmlns="http://www.w3.org/2000/svg">
<g clip-path="url(#clip0_461_177)">
<g clip-path="url(#clip1_461_177)">
<path fill-rule="evenodd" clip-rule="evenodd" d="M-99.1875 4.625C-102.991 4.625 -106.125 7.75913 -106.125 11.5625V18.5H-110.75C-111.363 18.5 -111.951 18.7436 -112.385 19.1773C-112.819 19.611 -113.062 20.1992 -113.062 20.8125C-113.062 21.4258 -112.819 22.014 -112.385 22.4477C-111.951 22.8814 -111.363 23.125 -110.75 23.125H-106.125V34.6875H-110.75C-111.363 34.6875 -111.951 34.9311 -112.385 35.3648C-112.819 35.7985 -113.062 36.3867 -113.062 37C-113.062 37.6133 -112.819 38.2015 -112.385 38.6352C-111.951 39.0689 -111.363 39.3125 -110.75 39.3125H-106.125V50.875H-110.75C-111.363 50.875 -111.951 51.1186 -112.385 51.5523C-112.819 51.986 -113.062 52.5742 -113.062 53.1875C-113.062 53.8008 -112.819 54.389 -112.385 54.8227C-111.951 55.2564 -111.363 55.5 -110.75 55.5H-106.125V62.4375C-106.125 66.2409 -102.991 69.375 -99.1875 69.375H-59.875C-56.0716 69.375 -52.9375 66.2409 -52.9375 62.4375V11.5625C-52.9375 7.75913 -56.0716 4.625 -59.875 4.625H-99.1875ZM11.8125 4.625C8.00913 4.625 4.875 7.75913 4.875 11.5625V18.5H0.25C-0.363312 18.5 -0.951469 18.7436 -1.38515 19.1773C-1.81883 19.611 -2.0625 20.1992 -2.0625 20.8125C-2.0625 21.4258 -1.81883 22.014 -1.38515 22.4477C-0.951469 22.8814 -0.363312 23.125 0.25 23.125H4.875V34.6875H0.25C-0.363312 34.6875 -0.951469 34.9311 -1.38515 35.3648C-1.81883 35.7985 -2.0625 36.3867 -2.0625 37C-2.0625 37.6133 -1.81883 38.2015 -1.38515 38.6352C-0.951469 39.0689 -0.363312 39.3125 0.25 39.3125H4.875V50.875H0.25C-0.363312 50.875 -0.951469 51.1186 -1.38515 51.5523C-1.81883 51.986 -2.0625 52.5742 -2.0625 53.1875C-2.0625 53.8008 -1.81883 54.389 -1.38515 54.8227C-0.951469 55.2564 -0.363312 55.5 0.25 55.5H4.875V62.4375C4.875 66.2409 8.00913 69.375 11.8125 69.375H51.125C54.9284 69.375 58.0625 66.2409 58.0625 62.4375V11.5625C58.0625 7.75913 54.9284 4.625 51.125 4.625H11.8125ZM-99.1875 9.25H-59.875C-58.5539 9.25 -57.5625 10.2414 -57.5625 11.5625V62.4375C-57.5625 63.7586 -58.5539 64.75 -59.875 64.75H-99.1875C-100.509 64.75 -101.5 63.7586 -101.5 62.4375V55.5H-99.1875C-98.5742 55.5 -97.986 55.2564 -97.5523 54.8227C-97.1187 54.389 -96.875 53.8008 -96.875 53.1875C-96.875 52.5742 -97.1187 51.986 -97.5523 51.5523C-97.986 51.1186 -98.5742 50.875 -99.1875 50.875H-101.5V39.3125H-99.1875C-98.5742 39.3125 -97.986 39.0689 -97.5523 38.6352C-97.1187 38.2015 -96.875 37.6133 -96.875 37C-96.875 36.3867 -97.1187 35.7985 -97.5523 35.3648C-97.986 34.9311 -98.5742 34.6875 -99.1875 34.6875H-101.5V23.125H-99.1875C-98.5742 23.125 -97.986 22.8814 -97.5523 22.4477C-97.1187 22.014 -96.875 21.4258 -96.875 20.8125C-96.875 20.1992 -97.1187 19.611 -97.5523 19.1773C-97.986 18.7436 -98.5742 18.5 -99.1875 18.5H-101.5V11.5625C-101.5 10.2414 -100.509 9.25 -99.1875 9.25ZM11.8125 9.25H51.125C52.4461 9.25 53.4375 10.2414 53.4375 11.5625V62.4375C53.4375 63.7586 52.4461 64.75 51.125 64.75H11.8125C10.4914 64.75 9.5 63.7586 9.5 62.4375V55.5H11.8125C12.4258 55.5 13.014 55.2564 13.4476 54.8227C13.8813 54.389 14.125 53.8008 14.125 53.1875C14.125 52.5742 13.8813 51.986 13.4476 51.5523C13.014 51.1186 12.4258 50.875 11.8125 50.875H9.5V39.3125H11.8125C12.4258 39.3125 13.014 39.0689 13.4476 38.6352C13.8813 38.2015 14.125 37.6133 14.125 37C14.125 36.3867 13.8813 35.7985 13.4476 35.3648C13.014 34.9311 12.4258 34.6875 11.8125 34.6875H9.5V23.125H11.8125C12.4258 23.125 13.014 22.8814 13.4476 22.4477C13.8813 22.014 14.125 21.4258 14.125 20.8125C14.125 20.1992 13.8813 19.611 13.4476 19.1773C13.014 18.7436 12.4258 18.5 11.8125 18.5H9.5V11.5625C9.5 10.2414 10.4914 9.25 11.8125 9.25ZM-80.6875 16.1875C-85.7687 16.1875 -89.9375 20.3563 -89.9375 25.4375C-89.9375 30.5187 -85.7687 34.6875 -80.6875 34.6875C-75.6063 34.6875 -71.4375 30.5187 -71.4375 25.4375C-71.4375 20.3563 -75.6063 16.1875 -80.6875 16.1875ZM-80.6875 20.8125C-78.1058 20.8125 -76.0625 22.8558 -76.0625 25.4375C-76.0625 28.0192 -78.1058 30.0625 -80.6875 30.0625C-83.2692 30.0625 -85.3125 28.0192 -85.3125 25.4375C-85.3125 22.8558 -83.2692 20.8125 -80.6875 20.8125ZM32.625 20.8125C23.7123 20.8125 16.4375 28.0873 16.4375 37C16.4375 45.9127 23.7123 53.1875 32.625 53.1875C32.9287 53.1875 33.2294 53.1277 33.51 53.0115C33.7905 52.8953 34.0455 52.7249 34.2602 52.5102C34.475 52.2955 34.6453 52.0405 34.7615 51.76C34.8777 51.4794 34.9375 51.1787 34.9375 50.875C34.9375 50.5713 34.8777 50.2706 34.7615 49.99C34.6453 49.7095 34.475 49.4545 34.2602 49.2398C34.0455 49.0251 33.7905 48.8547 33.51 48.7385C33.2294 48.6223 32.9287 48.5625 32.625 48.5625C26.2118 48.5625 21.0625 43.4132 21.0625 37C21.0625 30.5868 26.2118 25.4375 32.625 25.4375C39.0382 25.4375 44.1875 30.5868 44.1875 37V41.625C44.1875 42.9296 43.1796 43.9375 41.875 43.9375C40.5704 43.9375 39.5625 42.9296 39.5625 41.625V37C39.5625 33.1959 36.4291 30.0625 32.625 30.0625C28.8209 30.0625 25.6875 33.1959 25.6875 37C25.6875 40.8041 28.8209 43.9375 32.625 43.9375C33.5295 43.9375 34.3949 43.7574 35.1904 43.4362C35.9963 46.374 38.697 48.5625 41.875 48.5625C45.6791 48.5625 48.8125 45.4291 48.8125 41.625V37C48.8125 28.0873 41.5377 20.8125 32.625 20.8125ZM32.625 34.6875C33.9296 34.6875 34.9375 35.6954 34.9375 37C34.9375 38.3046 33.9296 39.3125 32.625 39.3125C31.3204 39.3125 30.3125 38.3046 30.3125 37C30.3125 35.6954 31.3204 34.6875 32.625 34.6875ZM-85.3125 37C-90.397 37 -94.5625 41.1655 -94.5625 46.25C-94.5625 51.3345 -90.397 55.5 -85.3125 55.5H-76.0625C-70.978 55.5 -66.8125 51.3345 -66.8125 46.25C-66.8125 41.1655 -70.978 37 -76.0625 37H-85.3125ZM-85.3125 41.625H-76.0625C-73.4602 41.625 -71.4375 43.6478 -71.4375 46.25C-71.4375 48.8523 -73.4602 50.875 -76.0625 50.875H-85.3125C-87.9148 50.875 -89.9375 48.8523 -89.9375 46.25C-89.9375 43.6478 -87.9148 41.625 -85.3125 41.625Z" fill="white"/>
</g>
</g>
<defs>
<clipPath id="clip0_461_177">
<rect width="74" height="74" fill="white" transform="translate(-5.5)"/>
</clipPath>
<clipPath id="clip1_461_177">
<rect width="74" height="74" fill="white" transform="translate(-9)"/>
</clipPath>
</defs>
</svg>
