<svg width="62" height="59" viewBox="0 0 62 59" fill="none" xmlns="http://www.w3.org/2000/svg">
<g clip-path="url(#clip0_259_190)">
<path d="M31.731 2.71057C30.2246 -4.40472 24.7559 4.41316 15.2744 7.27198C5.50176 10.2325 -1.85306 3.38398 0.412885 11.5793C5.21061 28.8466 16.4517 38.9859 24.1863 36.4955C24.7939 36.3049 26.4649 35.9364 27.0345 35.6696C27.5156 31.591 28.4523 27.1694 30.2499 22.608C31.7057 18.9106 32.8576 19.1012 34.6552 20.7275C34.8451 16.0772 33.326 10.2706 31.731 2.71057ZM11.2236 17.3986C8.80573 17.7289 6.99551 19.6729 6.91956 19.1647C6.8436 18.6437 8.5399 15.8739 10.9704 15.5308C13.3883 15.2004 15.6289 17.4367 15.7048 17.9449C15.7681 18.4659 13.6414 17.0682 11.2236 17.3986ZM22.8824 28.8084C19.8696 29.7487 15.92 27.6649 15.5529 26.4833C15.1858 25.3016 18.5404 25.8734 21.5659 24.9332C24.5914 23.9929 27.3257 21.6423 27.6928 22.824C28.0473 24.0056 25.8952 27.8682 22.8824 28.8084ZM25.3129 13.231C23.1103 14.2856 21.971 16.687 21.7431 16.2169C21.5153 15.7468 22.3001 12.583 24.5028 11.5285C26.7054 10.4739 29.5157 11.9223 29.7435 12.3925C29.9587 12.8626 27.5156 12.1764 25.3129 13.231Z" fill="black"/>
<path d="M45.5429 29.4941C35.9728 25.9492 34.2132 16.0259 31.1118 23.9417C24.5671 40.6245 27.4534 55.5158 35.112 58.2094C42.7706 60.9031 51.3154 57.4852 61.4172 35.809C64.4933 29.2146 54.8345 32.9374 45.5429 29.4941ZM32.0865 33.0264C32.2004 32.5181 33.8461 34.6019 36.226 35.1482C38.6185 35.6819 40.8465 34.4621 40.7325 34.9704C40.6186 35.4786 38.2134 37.5242 35.8209 36.9906C33.4284 36.4442 31.9726 33.5346 32.0865 33.0264ZM43.9985 52.3647C43.5428 53.5082 40.9984 50.9416 38.0742 49.76C35.15 48.5784 31.7574 48.8579 32.2131 47.7144C32.6688 46.5708 36.7703 44.8301 39.7072 46.0118C42.6314 47.1807 44.4543 51.2085 43.9985 52.3647ZM54.2776 41.6791C54.0117 42.1238 51.1002 43.3435 48.9861 42.1111C46.8721 40.8786 46.3657 37.6513 46.6189 37.2066C46.8848 36.7619 47.8089 39.2522 49.9229 40.4847C52.0369 41.7172 54.5307 41.2217 54.2776 41.6791Z" fill="black"/>
</g>
<defs>
<clipPath id="clip0_259_190">
<rect width="62" height="59" fill="white"/>
</clipPath>
</defs>
</svg>
