<svg width="62" height="59" viewBox="0 0 62 59" fill="none" xmlns="http://www.w3.org/2000/svg">
<g clip-path="url(#clip0_259_168)">
<path d="M23.25 11.0625C23.25 13.9965 22.0252 16.8102 19.8451 18.8849C17.665 20.9595 14.7081 22.125 11.625 22.125C8.54186 22.125 5.58499 20.9595 3.40488 18.8849C1.22477 16.8102 0 13.9965 0 11.0625C0 8.12854 1.22477 5.31475 3.40488 3.24013C5.58499 1.16551 8.54186 0 11.625 0C14.7081 0 17.665 1.16551 19.8451 3.24013C22.0252 5.31475 23.25 8.12854 23.25 11.0625ZM3.875 11.0625C3.875 13.0185 4.69152 14.8943 6.14492 16.2774C7.59833 17.6605 9.56957 18.4375 11.625 18.4375C13.6804 18.4375 15.6517 17.6605 17.1051 16.2774C18.5585 14.8943 19.375 13.0185 19.375 11.0625C19.375 9.10653 18.5585 7.23067 17.1051 5.84759C15.6517 4.46451 13.6804 3.6875 11.625 3.6875C9.56957 3.6875 7.59833 4.46451 6.14492 5.84759C4.69152 7.23067 3.875 9.10653 3.875 11.0625Z" fill="white"/>
<path d="M34.875 22.125H36.8125C38.6922 22.1248 40.508 22.7747 41.9216 23.9537C43.3352 25.1328 44.2504 26.7605 44.4966 28.5339L56.5479 23.4377C57.1378 23.1876 57.784 23.0818 58.4278 23.1298C59.0716 23.1778 59.6926 23.3782 60.2343 23.7127C60.776 24.0472 61.2213 24.5053 61.5297 25.0452C61.8381 25.5852 61.9997 26.1899 62 26.8044V54.3206C61.9994 54.9346 61.8377 55.5388 61.5296 56.0783C61.2214 56.6178 60.7766 57.0756 60.2354 57.41C59.6942 57.7444 59.0738 57.9449 58.4305 57.9934C57.7872 58.0418 57.1415 57.9366 56.5518 57.6873L44.4966 52.5911C44.2504 54.3645 43.3352 55.9922 41.9216 57.1713C40.508 58.3503 38.6922 59.0002 36.8125 59H7.75C5.69457 59 3.72333 58.223 2.26992 56.8399C0.816516 55.4568 0 53.581 0 51.625V29.5C0 27.544 0.816516 25.6682 2.26992 24.2851C3.72333 22.902 5.69457 22.125 7.75 22.125H34.875ZM58.125 54.3169V26.8081L44.5625 32.5422V48.5828L58.125 54.3169ZM3.875 29.5V51.625C3.875 52.603 4.28326 53.5409 5.00996 54.2325C5.73666 54.924 6.72229 55.3125 7.75 55.3125H36.8125C37.8402 55.3125 38.8258 54.924 39.5525 54.2325C40.2792 53.5409 40.6875 52.603 40.6875 51.625V29.5C40.6875 28.522 40.2792 27.5841 39.5525 26.8925C38.8258 26.201 37.8402 25.8125 36.8125 25.8125H7.75C6.72229 25.8125 5.73666 26.201 5.00996 26.8925C4.28326 27.5841 3.875 28.522 3.875 29.5Z" fill="white"/>
<path d="M34.875 22.125C37.9581 22.125 40.915 20.9595 43.0951 18.8849C45.2752 16.8102 46.5 13.9965 46.5 11.0625C46.5 8.12854 45.2752 5.31475 43.0951 3.24013C40.915 1.16551 37.9581 0 34.875 0C31.7919 0 28.835 1.16551 26.6549 3.24013C24.4748 5.31475 23.25 8.12854 23.25 11.0625C23.25 13.9965 24.4748 16.8102 26.6549 18.8849C28.835 20.9595 31.7919 22.125 34.875 22.125ZM27.125 11.0625C27.125 9.10653 27.9415 7.23067 29.3949 5.84759C30.8483 4.46451 32.8196 3.6875 34.875 3.6875C36.9304 3.6875 38.9017 4.46451 40.3551 5.84759C41.8085 7.23067 42.625 9.10653 42.625 11.0625C42.625 13.0185 41.8085 14.8943 40.3551 16.2774C38.9017 17.6605 36.9304 18.4375 34.875 18.4375C32.8196 18.4375 30.8483 17.6605 29.3949 16.2774C27.9415 14.8943 27.125 13.0185 27.125 11.0625Z" fill="white"/>
</g>
<defs>
<clipPath id="clip0_259_168">
<rect width="62" height="59" fill="white"/>
</clipPath>
</defs>
</svg>
