<svg width="162" height="162" viewBox="0 0 162 162" fill="none" xmlns="http://www.w3.org/2000/svg">
<g clip-path="url(#clip0_967_53)">
<path d="M81 81.0002L20.574 56.8622L24.3 145.8H8.1L11.988 53.3792L0 48.6002L81 16.2002L162 48.6002L81 81.0002ZM81 40.5002C76.545 40.5002 72.9 42.2822 72.9 44.5502C72.9 46.8182 76.545 48.6002 81 48.6002C85.455 48.6002 89.1 46.8182 89.1 44.5502C89.1 42.2822 85.455 40.5002 81 40.5002ZM81 89.1002L126.117 71.0372C131.868 78.6512 135.837 87.8042 137.133 97.7672C134.703 97.4432 132.192 97.2002 129.6 97.2002C108.945 97.2002 90.882 108.297 81 124.821C71.118 108.297 53.055 97.2002 32.4 97.2002C29.808 97.2002 27.297 97.4432 24.867 97.7672C26.163 87.8042 30.132 78.6512 35.883 71.0372L81 89.1002Z" fill="white"/>
</g>
<defs>
<clipPath id="clip0_967_53">
<rect width="162" height="162" fill="white"/>
</clipPath>
</defs>
</svg>
