<svg width="66" height="66" viewBox="0 0 66 66" fill="none" xmlns="http://www.w3.org/2000/svg">
<path d="M49.5 53.625C49.5 58.1831 44.88 61.875 39.1875 61.875C33.495 61.875 28.875 58.1831 28.875 53.625C28.875 49.0669 33.495 45.375 39.1875 45.375C44.88 45.375 49.5 49.0669 49.5 53.625Z" fill="white"/>
<path fill-rule="evenodd" clip-rule="evenodd" d="M49.5 12.375V53.625H45.375V12.375H49.5Z" fill="white"/>
<path d="M45.375 11.6325C45.3756 10.6792 45.7063 9.75559 46.3109 9.01862C46.9155 8.28164 47.7567 7.77682 48.6915 7.58998L61.0665 5.11498C61.6647 4.99541 62.282 5.01002 62.8739 5.15775C63.4658 5.30548 64.0176 5.58265 64.4894 5.9693C64.9613 6.35595 65.3415 6.84245 65.6027 7.39376C65.864 7.94506 65.9996 8.54743 66 9.15748V16.5L45.375 20.625V11.6325Z" fill="white"/>
<path fill-rule="evenodd" clip-rule="evenodd" d="M0 47.4375C0 46.8905 0.217299 46.3659 0.604092 45.9791C0.990886 45.5923 1.51549 45.375 2.0625 45.375H16.5C17.047 45.375 17.5716 45.5923 17.9584 45.9791C18.3452 46.3659 18.5625 46.8905 18.5625 47.4375C18.5625 47.9845 18.3452 48.5091 17.9584 48.8959C17.5716 49.2827 17.047 49.5 16.5 49.5H2.0625C1.51549 49.5 0.990886 49.2827 0.604092 48.8959C0.217299 48.5091 0 47.9845 0 47.4375ZM0 30.9375C0 30.3905 0.217299 29.8659 0.604092 29.4791C0.990886 29.0923 1.51549 28.875 2.0625 28.875H33C33.547 28.875 34.0716 29.0923 34.4584 29.4791C34.8452 29.8659 35.0625 30.3905 35.0625 30.9375C35.0625 31.4845 34.8452 32.0091 34.4584 32.3959C34.0716 32.7827 33.547 33 33 33H2.0625C1.51549 33 0.990886 32.7827 0.604092 32.3959C0.217299 32.0091 0 31.4845 0 30.9375ZM0 14.4375C0 13.8905 0.217299 13.3659 0.604092 12.9791C0.990886 12.5923 1.51549 12.375 2.0625 12.375H33C33.547 12.375 34.0716 12.5923 34.4584 12.9791C34.8452 13.3659 35.0625 13.8905 35.0625 14.4375C35.0625 14.9845 34.8452 15.5091 34.4584 15.8959C34.0716 16.2827 33.547 16.5 33 16.5H2.0625C1.51549 16.5 0.990886 16.2827 0.604092 15.8959C0.217299 15.5091 0 14.9845 0 14.4375Z" fill="white"/>
</svg>
