<svg width="181" height="178" viewBox="0 0 181 178" fill="none" xmlns="http://www.w3.org/2000/svg">
<path d="M83.8441 59.1259C85.9672 46.0856 77.1171 33.7931 64.0768 31.6699C51.0364 29.5467 38.7439 38.3968 36.6207 51.4372C34.4976 64.4775 43.3477 76.77 56.388 78.8932C69.4284 81.0164 81.7209 72.1663 83.8441 59.1259Z" fill="white"/>
<path d="M119.125 55.951C118.295 53.7385 116.912 51.8026 114.976 50.2815C109.583 46.4096 102.116 47.5158 98.2441 52.9088C94.3723 58.3018 95.4785 65.769 100.871 69.6408C106.264 73.5127 113.732 72.4065 117.604 67.0135C117.742 66.7369 117.88 66.5987 118.018 66.3221L126.177 67.1518L93.6809 90.6596L49.1543 83.1924C41.6871 81.9479 34.773 86.926 33.6668 94.3932L23.5723 156.758H73.077C75.2895 149.014 76.9488 140.994 78.3316 132.835C78.4699 131.591 79.023 128.687 79.023 128.272C80.1293 121.635 79.5762 114.582 77.3637 108.498L94.9254 111.402C97.4145 111.817 100.318 111.264 102.807 109.466L141.664 81.533C145.398 78.7674 146.781 73.7893 145.398 69.6408L160.471 71.3002L161.577 60.9291L119.125 55.951Z" fill="white"/>
</svg>
