<svg width="158" height="143" viewBox="0 0 158 143" fill="none" xmlns="http://www.w3.org/2000/svg">
<path d="M133.816 142H127.901C127.133 142 126.509 141.377 126.509 140.61V133.402H32.4907V140.61C32.4907 141.377 31.8672 142 31.0989 142H25.184C24.5709 142 24.0302 141.599 23.8521 141.013L21.5425 133.402H13.3917C12.6235 133.402 12 132.779 12 132.012V45.5094C12 44.7423 12.6235 44.1198 13.3917 44.1198H41.3957L28.9556 11.6697C26.5347 11.6822 24.5842 9.73541 24.5842 7.33487C24.5842 4.94475 26.5319 3 28.925 3C31.3188 3 33.2666 4.94475 33.2666 7.33487C33.2666 8.72447 32.6083 9.964 31.586 10.7575L44.3762 44.1198H55.6751L68.2704 10.5608C67.3845 9.76668 66.8257 8.61469 66.8257 7.33487C66.8257 4.94475 68.7735 3 71.1666 3C73.5604 3 75.5081 4.94475 75.5081 7.33487C75.5081 9.72499 73.5604 11.6697 71.1666 11.6697C71.0538 11.6697 70.9425 11.6656 70.8319 11.6565L58.6478 44.1198H145.608C146.376 44.1198 147 44.7423 147 45.5094V132.012C147 132.779 146.376 133.402 145.608 133.402H137.457L135.148 141.013C134.97 141.599 134.428 142 133.816 142ZM129.293 139.221H132.784L134.549 133.402H129.293V139.221ZM26.2167 139.221H29.7079V133.402H24.4506L26.2167 139.221ZM136.456 130.623H144.216V46.899H14.7835V130.623H22.5432C22.5633 130.623 22.5849 130.623 22.6072 130.623H136.393C136.416 130.622 136.437 130.622 136.456 130.623ZM71.1666 5.77921C70.3079 5.77921 69.6092 6.47679 69.6092 7.33487C69.6092 8.19295 70.3079 8.89053 71.1666 8.89053C72.0253 8.89053 72.7246 8.19295 72.7246 7.33487C72.7246 6.47679 72.026 5.77921 71.1666 5.77921ZM28.925 5.77921C28.0663 5.77921 27.3677 6.47679 27.3677 7.33487C27.3677 8.19295 28.0663 8.89053 28.925 8.89053C29.7837 8.89053 30.4831 8.19295 30.4831 7.33487C30.4831 6.47679 29.7837 5.77921 28.925 5.77921ZM136.037 122.459H133.729C132.961 122.459 132.337 121.836 132.337 121.069C132.337 120.302 132.961 119.679 133.729 119.679H136.037C136.805 119.679 137.428 120.302 137.428 121.069C137.428 121.836 136.805 122.459 136.037 122.459ZM127.219 122.459H124.912C124.143 122.459 123.52 121.836 123.52 121.069C123.52 120.302 124.143 119.679 124.912 119.679H127.219C127.987 119.679 128.611 120.302 128.611 121.069C128.611 121.836 127.988 122.459 127.219 122.459ZM118.402 122.459H116.094C115.326 122.459 114.702 121.836 114.702 121.069C114.702 120.302 115.326 119.679 116.094 119.679H118.402C119.171 119.679 119.794 120.302 119.794 121.069C119.794 121.836 119.171 122.459 118.402 122.459ZM96.8999 122.459H34.9673C27.5813 122.459 21.5717 116.458 21.5717 109.084V68.4378C21.5717 61.0632 27.5813 55.0629 34.9673 55.0629H96.8999C104.286 55.0629 110.295 61.0632 110.295 68.4378V109.084C110.295 116.458 104.286 122.459 96.8999 122.459ZM34.9673 57.8421C29.1157 57.8421 24.3552 62.5952 24.3552 68.4378V109.084C24.3552 114.926 29.1157 119.679 34.9673 119.679H96.8999C102.752 119.679 107.512 114.926 107.512 109.084V68.4378C107.512 62.5952 102.752 57.8421 96.8999 57.8421H34.9673ZM125.477 114.769C120.809 114.769 117.011 110.977 117.011 106.316C117.011 101.655 120.809 97.862 125.477 97.862C130.145 97.862 133.943 101.654 133.943 106.316C133.943 108.299 133.256 110.126 132.105 111.57C132.102 111.573 132.099 111.577 132.096 111.58C130.545 113.522 128.154 114.769 125.477 114.769ZM125.477 100.642C122.343 100.642 119.794 103.188 119.794 106.316C119.794 109.445 122.343 111.991 125.477 111.991C126.786 111.991 127.992 111.547 128.954 110.802L127.756 109.802C127.166 109.31 127.088 108.433 127.582 107.845C128.074 107.255 128.953 107.179 129.542 107.671L130.672 108.615C130.985 107.912 131.159 107.135 131.159 106.317C131.16 103.187 128.61 100.642 125.477 100.642ZM134.883 90.1212H116.094C115.326 90.1212 114.702 89.4987 114.702 88.7316C114.702 87.9646 115.326 87.342 116.094 87.342H134.883C135.651 87.342 136.275 87.9646 136.275 88.7316C136.275 89.4987 135.651 90.1212 134.883 90.1212ZM29.9132 85.6571C29.5569 85.6571 29.2013 85.5216 28.9292 85.25C28.3857 84.7073 28.3857 83.8277 28.9292 83.2851L50.321 61.9255C50.8645 61.3828 51.7455 61.3828 52.2889 61.9255C52.8324 62.4681 52.8324 63.3477 52.2889 63.8904L30.8971 85.25C30.625 85.5216 30.2694 85.6571 29.9132 85.6571ZM134.883 83.6651H116.094C115.326 83.6651 114.702 83.0426 114.702 82.2755C114.702 81.5085 115.326 80.8859 116.094 80.8859H134.883C135.651 80.8859 136.275 81.5085 136.275 82.2755C136.275 83.0426 135.651 83.6651 134.883 83.6651ZM134.883 77.2097H116.094C115.326 77.2097 114.702 76.5872 114.702 75.8201C114.702 75.053 115.326 74.4305 116.094 74.4305H134.883C135.651 74.4305 136.275 75.053 136.275 75.8201C136.275 76.5872 135.651 77.2097 134.883 77.2097ZM30.1539 73.9525C29.7976 73.9525 29.442 73.817 29.17 73.5453C28.6265 73.0027 28.6265 72.1231 29.17 71.5804L38.8398 61.9255C39.3833 61.3828 40.2643 61.3828 40.8077 61.9255C41.3512 62.4681 41.3512 63.3477 40.8077 63.8904L31.1379 73.5453C30.8658 73.817 30.5095 73.9525 30.1539 73.9525ZM134.883 70.7536H116.094C115.326 70.7536 114.702 70.1311 114.702 69.364C114.702 68.5969 115.326 67.9744 116.094 67.9744H134.883C135.651 67.9744 136.275 68.5969 136.275 69.364C136.275 70.1311 135.651 70.7536 134.883 70.7536ZM134.883 64.2975H116.094C115.326 64.2975 114.702 63.675 114.702 62.9079C114.702 62.1409 115.326 61.5183 116.094 61.5183H134.883C135.651 61.5183 136.275 62.1409 136.275 62.9079C136.275 63.675 135.651 64.2975 134.883 64.2975ZM134.883 57.8421H116.094C115.326 57.8421 114.702 57.2196 114.702 56.4525C114.702 55.6854 115.326 55.0629 116.094 55.0629H134.883C135.651 55.0629 136.275 55.6854 136.275 56.4525C136.275 57.2196 135.651 57.8421 134.883 57.8421Z" fill="#FFF0F0"/>
</svg>
